<?xml version="1.0" encoding="utf-8"?>
<!-- Generator: Adobe Illustrator 21.1.0, SVG Export Plug-In . SVG Version: 6.00 Build 0)  -->
<svg version="1.1" id="Icons" xmlns="http://www.w3.org/2000/svg" xmlns:xlink="http://www.w3.org/1999/xlink" x="0px" y="0px"
	 viewBox="0 0 48 48" style="enable-background:new 0 0 48 48;" xml:space="preserve">
<style type="text/css">
	.st0{fill:#FFE500;}
	.st1{fill:#EBCB00;}
	.st2{fill:#FFF48C;}
	.st3{opacity:0.15;fill:#45413C;}
	.st4{fill:none;stroke:#45413C;stroke-linecap:round;stroke-linejoin:round;stroke-miterlimit:10;}
	.st5{fill:#FFAA54;}
	.st6{fill:#FFB0CA;stroke:#45413C;stroke-linecap:round;stroke-linejoin:round;stroke-miterlimit:10;}
	.st7{fill:#FF87AF;stroke:#45413C;stroke-linecap:round;stroke-linejoin:round;stroke-miterlimit:10;}
	.st8{fill:#00B8F0;}
	.st9{fill:#4ACFFF;}
	.st10{fill:#FFFFFF;stroke:#45413C;stroke-linecap:round;stroke-linejoin:round;stroke-miterlimit:10;}
	.st11{fill:#45413C;stroke:#45413C;stroke-linecap:round;stroke-linejoin:round;stroke-miterlimit:10;}
	.st12{fill:#009FD9;}
	.st13{fill:none;stroke:#45413C;stroke-linecap:round;stroke-miterlimit:10;}
	.st14{fill:#FFFFFF;stroke:#45413C;stroke-linejoin:round;stroke-miterlimit:10;}
	.st15{fill:#FF6242;}
	.st16{fill:#FF866E;}
	.st17{fill:#656769;}
	.st18{fill:#87898C;}
	.st19{fill:#4AEFF7;stroke:#45413C;stroke-linecap:round;stroke-linejoin:round;stroke-miterlimit:10;}
	.st20{fill:none;stroke:#48CF3E;stroke-linecap:round;stroke-linejoin:round;stroke-miterlimit:10;}
	.st21{fill:none;stroke:#FF4064;stroke-linecap:round;stroke-linejoin:round;stroke-miterlimit:10;}
	.st22{fill:none;stroke:#FFB700;stroke-linecap:round;stroke-linejoin:round;stroke-miterlimit:10;}
	.st23{fill:none;stroke:#00AED9;stroke-linecap:round;stroke-linejoin:round;stroke-miterlimit:10;}
	.st24{fill:#FFFACF;}
	.st25{fill:#45413C;}
	.st26{fill:#FF866E;stroke:#45413C;stroke-linecap:round;stroke-linejoin:round;stroke-miterlimit:10;}
	.st27{fill:#DABFF5;stroke:#45413C;stroke-linejoin:round;stroke-miterlimit:10;}
	.st28{fill:#EDDBFF;}
	.st29{fill:none;stroke:#45413C;stroke-linejoin:round;stroke-miterlimit:10;}
	.st30{fill:#6DD627;}
	.st31{fill:#46B000;}
	.st32{fill:#C8FFA1;}
	.st33{fill:url(#XMLID_91_);}
	.st34{fill:url(#XMLID_92_);}
	.st35{fill:#F0F0F0;stroke:#45413C;stroke-linecap:round;stroke-linejoin:round;stroke-miterlimit:10;}
	.st36{fill:#EBCB00;stroke:#45413C;stroke-linecap:round;stroke-linejoin:round;stroke-miterlimit:10;}
	.st37{fill:#BDBEC0;stroke:#45413C;stroke-linecap:round;stroke-linejoin:round;stroke-miterlimit:10;}
	.st38{fill:#F0F0F0;}
	.st39{fill:#FFFFFF;}
	.st40{fill:url(#XMLID_93_);}
	.st41{fill:url(#XMLID_94_);}
	.st42{fill:#FFE500;stroke:#45413C;stroke-linecap:round;stroke-linejoin:round;stroke-miterlimit:10;}
	.st43{fill:#E04122;}
	.st44{fill:#8CFFE4;stroke:#45413C;stroke-linecap:round;stroke-linejoin:round;stroke-miterlimit:10;}
	.st45{fill:#E5FFF9;}
	.st46{fill:#E0E0E0;}
	.st47{fill:#9CEB60;}
	.st48{fill:#6DD627;stroke:#45413C;stroke-linecap:round;stroke-linejoin:round;stroke-miterlimit:10;}
	.st49{fill:#E8F4FA;}
	.st50{fill:#F0D5A8;}
	.st51{fill:#DEBB7E;}
	.st52{fill:#B89558;}
	.st53{fill:#00B8F0;stroke:#45413C;stroke-linecap:round;stroke-linejoin:round;stroke-miterlimit:10;}
	.st54{fill:#FFFCE5;}
	.st55{fill:#FF87AF;}
	.st56{fill:#4ACFFF;stroke:#45413C;stroke-linecap:round;stroke-linejoin:round;stroke-miterlimit:10;}
	.st57{fill:#E5F8FF;}
	.st58{fill:none;stroke:#45413C;stroke-miterlimit:10;}
	.st59{fill:none;stroke:#FF6242;stroke-linecap:round;stroke-linejoin:round;stroke-miterlimit:10;}
	.st60{fill:#BDBEC0;}
	.st61{fill:#B89558;stroke:#45413C;stroke-linecap:round;stroke-linejoin:round;stroke-miterlimit:10;}
	.st62{fill:#FF6242;stroke:#45413C;stroke-linecap:round;stroke-linejoin:round;stroke-miterlimit:10;}
	.st63{fill:#525252;stroke:#45413C;stroke-linecap:round;stroke-linejoin:round;stroke-miterlimit:10;}
	.st64{fill:#525252;}
	.st65{fill:#00DBA8;}
	.st66{fill:#00AD85;}
	.st67{fill:#BF8DF2;}
	.st68{fill:#DABFF5;}
	.st69{fill:#00F5BC;}
	.st70{fill:#DAEDF7;}
	.st71{fill:#C0DCEB;}
	.st72{fill:#ADC4D9;}
	.st73{fill:#ADC4D9;stroke:#45413C;stroke-linecap:round;stroke-linejoin:round;stroke-miterlimit:10;}
	.st74{fill:#00DFEB;stroke:#45413C;stroke-linecap:round;stroke-linejoin:round;stroke-miterlimit:10;}
	.st75{fill:#627B8C;stroke:#45413C;stroke-linecap:round;stroke-linejoin:round;stroke-miterlimit:10;}
	.st76{fill:#8CA4B8;}
	.st77{fill:#00DBA8;stroke:#45413C;stroke-linecap:round;stroke-linejoin:round;stroke-miterlimit:10;}
	.st78{fill:#FF8A14;}
	.st79{fill:#BF8256;}
	.st80{fill:#DEA47A;}
	.st81{fill:#915E3A;}
	.st82{fill:#FFA694;}
	.st83{fill:#E5FEFF;stroke:#45413C;stroke-linecap:round;stroke-linejoin:round;stroke-miterlimit:10;}
	.st84{fill:#803EC2;stroke:#45413C;stroke-linecap:round;stroke-linejoin:round;stroke-miterlimit:10;}
	.st85{fill:#9F5AE5;}
	.st86{fill:#803EC2;}
</style>
<g id="XMLID_706_">
	<ellipse id="XMLID_2641_" class="st3" cx="24" cy="45.5" rx="16" ry="1.5"/>
	<circle id="XMLID_2627_" class="st0" cx="24" cy="21.5" r="20"/>
	<path id="XMLID_2624_" class="st1" d="M24,1.5c-11,0-20,9-20,20s9,20,20,20s20-9,20-20S35,1.5,24,1.5z M24,38.5
		c-10.1,0-18.2-8.2-18.2-18.2C5.8,10.2,13.9,2,24,2s18.2,8.2,18.2,18.2C42.2,30.3,34.1,38.5,24,38.5z"/>
	<ellipse id="XMLID_2623_" class="st2" cx="24" cy="5.5" rx="6" ry="1.5"/>
	<circle id="XMLID_2622_" class="st4" cx="24" cy="21.5" r="20"/>
	<ellipse id="XMLID_2621_" class="st5" cx="36" cy="26.5" rx="2.5" ry="1.5"/>
	<ellipse id="XMLID_2620_" class="st5" cx="12" cy="26.5" rx="2.5" ry="1.5"/>
	<circle id="XMLID_2619_" class="st11" cx="13.5" cy="17.5" r="1"/>
	<circle id="XMLID_2618_" class="st11" cx="34.5" cy="20.5" r="1"/>
	<path id="XMLID_418_" class="st18" d="M44,18.5h-1.5V14H44c0.8,0,1.5,0.7,1.5,1.5V17C45.5,17.8,44.8,18.5,44,18.5z"/>
	<path id="XMLID_416_" class="st60" d="M44,14h-1.5v1.5H44c0.8,0,1.5,0.7,1.5,1.5v-1.5C45.5,14.7,44.8,14,44,14z"/>
	<path id="XMLID_415_" class="st4" d="M44,18.5h-1.5V14H44c0.8,0,1.5,0.7,1.5,1.5V17C45.5,17.8,44.8,18.5,44,18.5z"/>
	<circle id="XMLID_414_" class="st18" cx="35" cy="16.5" r="8.5"/>
	<path id="XMLID_413_" class="st60" d="M35,10c4.4,0,7.9,3.3,8.4,7.5c0-0.3,0.1-0.7,0.1-1c0-4.7-3.8-8.5-8.5-8.5s-8.5,3.8-8.5,8.5
		c0,0.3,0,0.7,0.1,1C27.1,13.3,30.6,10,35,10z"/>
	<circle id="XMLID_412_" class="st4" cx="35" cy="16.5" r="8.5"/>
	<circle id="XMLID_411_" class="st8" cx="35" cy="16.5" r="6.5"/>
	<path id="XMLID_410_" class="st9" d="M35,10c-3.6,0-6.5,2.9-6.5,6.5c0,1.2,0.3,2.3,0.9,3.2l7.8-9.3C36.5,10.1,35.8,10,35,10z"/>
	<circle id="XMLID_406_" class="st4" cx="35" cy="16.5" r="6.5"/>
	<path id="XMLID_405_" class="st4" d="M45.5,16c0,0,1.5,0.1,1.5,2s0,12.8,0,17s-4,4-4,4s-4,0.3-4-4v-0.3"/>
	<path id="XMLID_404_" class="st4" d="M21,28.6c0,0,1.1-0.6,3-0.6s3,0.6,3,0.6"/>
	<path id="XMLID_403_" class="st4" d="M11,15c0,0,0.4-2.5,2.5-2.5c2.1,0,2.5,2.5,2.5,2.5"/>
</g>
</svg>
